<?xml version="1.0" encoding="UTF-8"?>
<svg width="183px" height="91px" viewBox="0 0 183 91" version="1.1" xmlns="http://www.w3.org/2000/svg" xmlns:xlink="http://www.w3.org/1999/xlink">
    <title>arrow</title>
    <g id="Page-1" stroke="none" stroke-width="1" fill="none" fill-rule="evenodd">
        <g id="Artboard" transform="translate(-259.000000, -28.000000)" fill="#E8E8E8" fill-rule="nonzero">
            <g id="arrow" transform="translate(350.245243, 73.072815) scale(-1, 1) translate(-350.245243, -73.072815) translate(259.000000, 28.000000)">
                <g id="Asset-1" transform="translate(91.245243, 45.072815) rotate(-89.000000) translate(-91.245243, -45.072815) translate(47.745243, -45.427032)">
                    <path d="M83.5954811,15.9744118 C68.0136231,7.36289104 49.892191,2.51320509 32.3498272,0.885232078 C22.7592447,-2.48173877e-15 9.03191924,-1.7925553 2.77949529,5.10350794 C-5.85354287,14.6317145 7.19252575,9.34840953 20.4391867,69.5149448 C21.6313861,74.9427894 31.153843,71.7705242 30.7488736,66.9132309 C29.9010873,56.7498106 28.5688517,46.6434454 26.7521668,36.5941354 C55.7850627,67.8679534 60.2737884,110.035497 45.0741912,147.604397 C43.1477482,152.412243 34.4087368,169.688536 30.5558508,174.500185 C25.9081652,180.293182 34.5449882,184.899433 40.8768921,176.067299 C62.2305095,157.490149 95.4985521,90.0471838 54.502029,33.9848142 C44.8168275,20.7404169 41.3840499,21.2881462 47.0914684,22.9541559 C53.1470848,24.7190613 63.7444136,28.587399 69.6524243,31.1320577 C80.6963548,35.8904555 93.148216,21.2691278 83.5954811,15.9744118 Z" id="Path"></path>
                </g>
            </g>
        </g>
    </g>
</svg>